<svg xmlns="http://www.w3.org/2000/svg" width="960" height="520" viewBox="0 0 960 520" role="img" aria-labelledby="title desc">
  <title id="title">Dispatch Claw A — Seed Bolt</title>
  <desc id="desc">Internal exploratory ClawQueue logo draft. Amber lightning-claw in a navy rounded tile.</desc>
  <defs>
    <linearGradient id="bg" x1="0" y1="0" x2="1" y2="1">
      <stop offset="0" stop-color="#07111E"/><stop offset="1" stop-color="#0A1A2C"/>
    </linearGradient>
    <filter id="soft" x="-20%" y="-20%" width="140%" height="140%">
      <feDropShadow dx="0" dy="18" stdDeviation="22" flood-color="#000" flood-opacity="0.35"/>
    </filter>
    <style>
      .label { font: 700 14px ui-monospace, SFMono-Regular, Menlo, Consolas, monospace; letter-spacing:.12em; fill:#8EA0B8; text-transform:uppercase; }
      .word { font: 800 58px Barlow, Inter, system-ui, sans-serif; letter-spacing:-.035em; fill:#E8EDF5; }
      .sub { font: 500 18px "DM Sans", Inter, system-ui, sans-serif; fill:#8EA0B8; }
      .mono { font: 700 15px ui-monospace, SFMono-Regular, Menlo, Consolas, monospace; fill:#8EA0B8; }
      .tile { fill:#0B1728; stroke:#1D314A; stroke-width:2; }
      .smallTile { fill:#0B1728; stroke:#1E3653; stroke-width:1.5; }
    </style>
  </defs>
  <rect width="960" height="520" rx="34" fill="url(#bg)"/>
  <rect x="28" y="28" width="904" height="464" rx="28" fill="none" stroke="#142840"/>

  <text x="64" y="72" class="label">DISPATCH CLAW · A</text>
  <g filter="url(#soft)">
    <rect x="86" y="125" width="230" height="230" rx="46" class="tile"/>
    <path d="M224 158 L147 263 H198 L176 322 L264 207 H210 Z" fill="#F59E0B"/>
    <path d="M235 164 L184 232" stroke="#FFD184" stroke-width="8" stroke-linecap="round" opacity=".85"/>
  </g>
    <text x="380" y="226" class="word">Claw<tspan fill="#F59E0B">Queue</tspan></text>
  <text x="384" y="268" class="sub">local GitHub issue dispatcher</text>
  <text x="384" y="318" class="mono">one-stroke claw/bolt keeps continuity with current seed mark</text>
  <g transform="translate(384 360)">
    <rect width="52" height="52" rx="12" class="smallTile"/><path d="M31 10 L14 33 H25 L20 45 L41 20 H29 Z" fill="#F59E0B"/>
    <rect x="76" y="8" width="36" height="36" rx="9" fill="#F59E0B"/><path d="M98 16 L86 31 H94 L90 39 L105 22 H96 Z" fill="#07111E"/>
    <text x="132" y="32" class="mono">favicon / app tile checks</text>
  </g>
</svg>