<svg xmlns="http://www.w3.org/2000/svg" width="960" height="520" viewBox="0 0 960 520" role="img" aria-labelledby="title desc">
  <title id="title">Lobster Switchclaw B — Routing Pincer</title>
  <desc id="desc">Internal exploratory ClawQueue logo draft. Switchboard paths form an abstract lobster claw.</desc>
  <defs>
    <linearGradient id="bg" x1="0" y1="0" x2="1" y2="1"><stop offset="0" stop-color="#07111E"/><stop offset="1" stop-color="#0A1A2C"/></linearGradient>
    <filter id="soft" x="-20%" y="-20%" width="140%" height="140%"><feDropShadow dx="0" dy="18" stdDeviation="22" flood-color="#000" flood-opacity="0.35"/></filter>
    <style>
      .label { font: 700 14px ui-monospace, SFMono-Regular, Menlo, Consolas, monospace; letter-spacing:.12em; fill:#8EA0B8; text-transform:uppercase; }
      .word { font: 800 58px Barlow, Inter, system-ui, sans-serif; letter-spacing:-.035em; fill:#E8EDF5; }
      .sub { font: 500 18px "DM Sans", Inter, system-ui, sans-serif; fill:#8EA0B8; }
      .mono { font: 700 15px ui-monospace, SFMono-Regular, Menlo, Consolas, monospace; fill:#8EA0B8; }
      .tile { fill:#0B1728; stroke:#1D314A; stroke-width:2; }
      .smallTile { fill:#0B1728; stroke:#1E3653; stroke-width:1.5; }
    </style>
  </defs>
  <rect width="960" height="520" rx="34" fill="url(#bg)"/>
  <rect x="28" y="28" width="904" height="464" rx="28" fill="none" stroke="#142840"/>

  <text x="64" y="72" class="label">LOBSTER SWITCHCLAW · B</text>
  <g filter="url(#soft)">
    <rect x="86" y="125" width="230" height="230" rx="46" class="tile"/>
    <path d="M143 284 C180 260 200 231 214 196" stroke="#317AE8" stroke-width="11" stroke-linecap="round" fill="none"/>
    <path d="M214 196 C245 170 273 181 285 210" stroke="#F59E0B" stroke-width="17" stroke-linecap="round" fill="none"/>
    <path d="M214 196 C220 159 249 148 274 160" stroke="#F59E0B" stroke-width="17" stroke-linecap="round" fill="none"/>
    <circle cx="214" cy="196" r="20" fill="#F59E0B"/>
    <circle cx="143" cy="284" r="10" fill="#E8EDF5"/><circle cx="174" cy="252" r="8" fill="#E8EDF5" opacity=".75"/>
    <path d="M214 196 H158" stroke="#317AE8" stroke-width="8" stroke-linecap="round" opacity=".95"/>
    <path d="M158 196 H135" stroke="#E8EDF5" stroke-width="8" stroke-linecap="round" opacity=".85"/>
    <circle cx="135" cy="196" r="8" fill="#E8EDF5"/>
  </g>
    <text x="380" y="226" class="word">Claw<tspan fill="#F59E0B">Queue</tspan></text>
  <text x="384" y="268" class="sub">local GitHub issue dispatcher</text>
  <text x="384" y="318" class="mono">retries switchboard as a claw: routing paths become the arm/pincer</text>
  <g transform="translate(384 360)">
    <rect width="52" height="52" rx="12" class="smallTile"/><path d="M11 37 C24 31 28 22 32 14" stroke="#317AE8" stroke-width="4" stroke-linecap="round" fill="none"/><path d="M32 14 C41 8 48 12 49 22" stroke="#F59E0B" stroke-width="5" stroke-linecap="round" fill="none"/><path d="M32 14 C34 4 42 2 49 6" stroke="#F59E0B" stroke-width="5" stroke-linecap="round" fill="none"/><circle cx="32" cy="14" r="5" fill="#F59E0B"/>
    <rect x="76" y="8" width="36" height="36" rx="9" fill="#F59E0B"/><path d="M84 33 C94 28 98 21 101 15" stroke="#07111E" stroke-width="3" stroke-linecap="round" fill="none"/><path d="M101 15 C107 11 111 14 111 21" stroke="#07111E" stroke-width="4" stroke-linecap="round" fill="none"/><path d="M101 15 C102 8 107 7 111 9" stroke="#07111E" stroke-width="4" stroke-linecap="round" fill="none"/>
    <text x="132" y="32" class="mono">best bridge between product logic and claw personality</text>
  </g>
</svg>